<svg width="103" height="26" viewBox="0 0 103 26" fill="none" xmlns="http://www.w3.org/2000/svg">
<path d="M93.4541 11.7366C93.4541 10.8851 93.5301 10.1514 93.6822 9.5355C93.8419 8.91204 94.0472 8.39121 94.2981 7.97304C94.5566 7.54726 94.8531 7.20511 95.1876 6.9466C95.5222 6.68809 95.8643 6.49041 96.2141 6.35355C96.5714 6.20909 96.925 6.11405 97.2747 6.06843C97.6321 6.02281 97.959 6 98.2555 6C98.5369 6 98.8486 6.02281 99.1907 6.06843C99.5405 6.10645 99.8902 6.19388 100.24 6.33074C100.597 6.46 100.939 6.65388 101.266 6.91239C101.601 7.16329 101.894 7.50164 102.145 7.92742C102.403 8.3532 102.608 8.87782 102.76 9.50129C102.92 10.1248 103 10.8699 103 11.7366V19.9709C103 20.8225 102.92 21.56 102.76 22.1835C102.608 22.7993 102.403 23.324 102.145 23.7573C101.886 24.1907 101.59 24.5443 101.255 24.818C100.92 25.0841 100.578 25.2932 100.229 25.4453C99.8788 25.5897 99.5291 25.6886 99.1793 25.7418C98.8372 25.795 98.5293 25.8216 98.2555 25.8216C97.9514 25.8216 97.6207 25.795 97.2633 25.7418C96.906 25.6886 96.5486 25.5897 96.1913 25.4453C95.8339 25.2932 95.488 25.0841 95.1534 24.818C94.8265 24.5519 94.5376 24.2021 94.2867 23.7687C94.0357 23.3354 93.8343 22.8069 93.6822 22.1835C93.5301 21.56 93.4541 20.8225 93.4541 19.9709V11.7366ZM96.4764 21.2141C96.4764 22.02 96.6208 22.6054 96.9098 22.9704C97.2063 23.3354 97.6549 23.5178 98.2555 23.5178C98.841 23.5178 99.2782 23.3354 99.5671 22.9704C99.856 22.6054 100 22.02 100 21.2141V10.6646C100 9.81302 99.856 9.19336 99.5671 8.80559C99.2782 8.41783 98.841 8.22394 98.2555 8.22394C97.6549 8.22394 97.2063 8.41783 96.9098 8.80559C96.6208 9.19336 96.4764 9.81302 96.4764 10.6646V21.2141Z" fill="black"/>
<path d="M80.3852 3.06399C80.3399 2.47389 80.3648 1.98365 80.4601 1.59327C80.5555 1.19836 80.6985 0.882882 80.8891 0.646842C81.0797 0.410801 81.3067 0.245119 81.57 0.149795C81.8378 0.0499316 82.1192 0 82.4143 0C82.7139 0 82.9772 0.0522013 83.2041 0.156604C83.4311 0.261006 83.6331 0.392644 83.8101 0.551518C83.9871 0.710391 84.1437 0.880612 84.2799 1.06218C84.4206 1.24375 84.5523 1.41397 84.6748 1.57285C84.8019 1.73172 84.9268 1.86336 85.0493 1.96776C85.1764 2.07216 85.3149 2.12436 85.4647 2.12436C85.7779 2.12436 85.9912 1.96095 86.1047 1.63413C86.2227 1.3073 86.2272 0.83295 86.1183 0.211075H87.4256C87.5255 0.742166 87.5414 1.20971 87.4733 1.6137C87.4097 2.01315 87.2872 2.34679 87.1056 2.6146C86.9286 2.87788 86.7084 3.0776 86.4451 3.21378C86.1864 3.34542 85.914 3.41124 85.6281 3.41124C85.3194 3.41124 85.047 3.35904 84.811 3.25463C84.575 3.15023 84.3616 3.02086 84.171 2.86653C83.9849 2.7122 83.8192 2.54424 83.6739 2.36267C83.5287 2.17657 83.388 2.00634 83.2518 1.85201C83.1201 1.69768 82.9908 1.56831 82.8637 1.4639C82.7366 1.3595 82.6004 1.3073 82.4551 1.3073C82.2826 1.3073 82.1351 1.35042 82.0126 1.43667C81.8945 1.52291 81.8015 1.6432 81.7334 1.79754C81.6698 1.95187 81.629 2.13798 81.6108 2.35587C81.5972 2.56921 81.6108 2.80525 81.6517 3.06399H80.3852Z" fill="black"/>
<path d="M88.2754 17.2902L90.2996 24.1503H89.7288L89.3845 22.5254L88.2754 17.2902ZM85.4242 7.62793L85.6288 8.32135H85.1596H82.705H82.2502L82.4548 7.62793H85.4242ZM77.5793 24.1503L78.8821 19.7352L77.8651 24.1503H77.5793Z" fill="#1D1D1D" stroke="#1D1D1D" stroke-width="3" stroke-linecap="round"/>
<path d="M0 21.7045C0 21.2863 0.0228097 20.9023 0.068429 20.5526C0.121652 20.1952 0.197684 19.8113 0.296526 19.4007H2.5889V20.3473C2.5889 20.8719 2.61931 21.3357 2.68014 21.7387C2.74857 22.1417 2.85501 22.4838 2.99947 22.7651C3.15154 23.0388 3.34922 23.2479 3.59252 23.3924C3.84343 23.5292 4.14756 23.5977 4.50491 23.5977C5.06755 23.5977 5.49713 23.4456 5.79366 23.1415C6.09018 22.8297 6.23845 22.3773 6.23845 21.7843C6.23845 21.4802 6.21564 21.2027 6.17002 20.9517C6.132 20.6932 6.05977 20.4385 5.95333 20.1876C5.85448 19.9367 5.71763 19.6744 5.54275 19.4007C5.36788 19.1194 5.14358 18.8076 4.86987 18.4655L1.79056 14.8045C1.24313 14.105 0.821148 13.4017 0.524623 12.6946C0.228097 11.9799 0.0798339 11.2196 0.0798339 10.4137C0.0798339 9.7674 0.178676 9.17435 0.37636 8.63452C0.581647 8.09469 0.874371 7.63089 1.25453 7.24313C1.63469 6.84776 2.10229 6.54363 2.65733 6.33074C3.21997 6.11025 3.85484 6 4.56194 6C5.4211 6 6.1358 6.12165 6.70604 6.36495C7.28389 6.60826 7.74389 6.92759 8.08603 7.32296C8.42817 7.71833 8.66768 8.16312 8.80453 8.65733C8.949 9.14393 9.02123 9.63434 9.02123 10.1286C9.02123 10.5467 8.98701 10.9345 8.91858 11.2918C8.85776 11.6416 8.78553 12.0294 8.70189 12.4551H6.42092V11.5313C6.42092 10.4973 6.27266 9.70657 5.97614 9.15914C5.67961 8.60411 5.1968 8.32659 4.52772 8.32659C3.97269 8.32659 3.55831 8.48245 3.28459 8.79419C3.01088 9.09832 2.87402 9.50889 2.87402 10.0259C2.87402 10.2996 2.89303 10.5467 2.93104 10.7672C2.97666 10.9877 3.03749 11.193 3.11352 11.3831C3.19716 11.5656 3.296 11.7442 3.41005 11.9191C3.5241 12.094 3.65335 12.2765 3.79781 12.4665L7.23067 16.6179C7.85413 17.4315 8.33313 18.2146 8.66768 18.9673C9.00222 19.7124 9.16949 20.5032 9.16949 21.3395C9.16949 22.0314 9.05924 22.6549 8.83875 23.2099C8.62586 23.7649 8.31793 24.2363 7.91496 24.6241C7.51199 25.0119 7.02538 25.3122 6.45514 25.5251C5.8849 25.7304 5.24242 25.833 4.52772 25.833C3.64575 25.833 2.91204 25.7152 2.32659 25.4795C1.74874 25.2438 1.28495 24.932 0.935197 24.5443C0.593052 24.1565 0.349748 23.7155 0.205287 23.2213C0.068429 22.7271 0 22.2215 0 21.7045Z" fill="black"/>
<path d="M15.9668 25.8216C15.655 25.8216 15.3167 25.795 14.9517 25.7418C14.5868 25.6962 14.2256 25.5935 13.8683 25.4338C13.5109 25.2742 13.165 25.0499 12.8304 24.761C12.5035 24.4644 12.2108 24.0767 11.9523 23.5977C11.7014 23.1187 11.4999 22.5294 11.3478 21.8299C11.1957 21.1228 11.1197 20.2827 11.1197 19.3094V12.4095C11.1197 11.4287 11.1957 10.5923 11.3478 9.90046C11.5075 9.20096 11.7166 8.61551 11.9751 8.14411C12.2336 7.66511 12.5263 7.28495 12.8533 7.00363C13.1878 6.72231 13.5337 6.50942 13.8911 6.36495C14.256 6.21289 14.6172 6.11405 14.9746 6.06843C15.3319 6.02281 15.6626 6 15.9668 6C16.2557 6 16.575 6.02281 16.9248 6.06843C17.2821 6.10645 17.6357 6.19768 17.9854 6.34215C18.3428 6.479 18.6887 6.68809 19.0233 6.96941C19.3578 7.24313 19.6543 7.61949 19.9128 8.09849C20.1714 8.56989 20.3766 9.15914 20.5287 9.86624C20.6884 10.5657 20.7682 11.4135 20.7682 12.4095V19.3094C20.7682 20.2751 20.6884 21.1076 20.5287 21.8071C20.369 22.499 20.16 23.0883 19.9014 23.5749C19.6429 24.0539 19.3426 24.4416 19.0005 24.7382C18.6659 25.0271 18.32 25.2552 17.9626 25.4224C17.6129 25.5821 17.2631 25.6886 16.9134 25.7418C16.5636 25.795 16.2481 25.8216 15.9668 25.8216ZM15.9668 23.5977C16.2557 23.5977 16.5066 23.5482 16.7195 23.4494C16.94 23.3506 17.1187 23.1795 17.2555 22.9362C17.4 22.6929 17.5064 22.3735 17.5749 21.9782C17.6509 21.5752 17.6889 21.0696 17.6889 20.4613V11.5998C17.6889 10.9763 17.6509 10.4555 17.5749 10.0373C17.5064 9.61914 17.4 9.28459 17.2555 9.03369C17.1187 8.77518 16.94 8.5927 16.7195 8.48626C16.5066 8.37981 16.2557 8.32659 15.9668 8.32659C15.6702 8.32659 15.4117 8.37981 15.1912 8.48626C14.9708 8.5927 14.7883 8.77518 14.6438 9.03369C14.4994 9.28459 14.3891 9.61914 14.3131 10.0373C14.2446 10.4555 14.2104 10.9763 14.2104 11.5998V20.4613C14.2104 21.0696 14.2446 21.5752 14.3131 21.9782C14.3891 22.3735 14.4994 22.6929 14.6438 22.9362C14.7883 23.1795 14.9708 23.3506 15.1912 23.4494C15.4117 23.5482 15.6702 23.5977 15.9668 23.5977Z" fill="black"/>
<path d="M23.5624 6.17107H31.0098V8.49766H26.5162V14.3255H30.0403V16.6521H26.5162V25.6505H23.5624V6.17107Z" fill="black"/>
<path d="M32.9828 6.17107H35.9366V25.6505H32.9828V6.17107Z" fill="black"/>
<path d="M38.5255 21.7045C38.5255 21.2863 38.5484 20.9023 38.594 20.5526C38.6472 20.1952 38.7232 19.8113 38.8221 19.4007H41.1144V20.3473C41.1144 20.8719 41.1449 21.3357 41.2057 21.7387C41.2741 22.1417 41.3806 22.4838 41.525 22.7651C41.6771 23.0388 41.8748 23.2479 42.1181 23.3924C42.369 23.5292 42.6731 23.5977 43.0305 23.5977C43.5931 23.5977 44.0227 23.4456 44.3192 23.1415C44.6157 22.8297 44.764 22.3773 44.764 21.7843C44.764 21.4802 44.7412 21.2027 44.6956 20.9517C44.6575 20.6932 44.5853 20.4385 44.4789 20.1876C44.38 19.9367 44.2432 19.6744 44.0683 19.4007C43.8934 19.1194 43.6691 18.8076 43.3954 18.4655L40.3161 14.8045C39.7687 14.105 39.3467 13.4017 39.0502 12.6946C38.7536 11.9799 38.6054 11.2196 38.6054 10.4137C38.6054 9.7674 38.7042 9.17435 38.9019 8.63452C39.1072 8.09469 39.3999 7.63089 39.7801 7.24313C40.1602 6.84776 40.6278 6.54363 41.1829 6.33074C41.7455 6.11025 42.3804 6 43.0875 6C43.9466 6 44.6613 6.12165 45.2316 6.36495C45.8094 6.60826 46.2694 6.92759 46.6116 7.32296C46.9537 7.71833 47.1932 8.16312 47.3301 8.65733C47.4745 9.14393 47.5468 9.63434 47.5468 10.1286C47.5468 10.5467 47.5126 10.9345 47.4441 11.2918C47.3833 11.6416 47.3111 12.0294 47.2274 12.4551H44.9465V11.5313C44.9465 10.4973 44.7982 9.70657 44.5017 9.15914C44.2052 8.60411 43.7223 8.32659 43.0533 8.32659C42.4982 8.32659 42.0839 8.48245 41.8101 8.79419C41.5364 9.09832 41.3996 9.50889 41.3996 10.0259C41.3996 10.2996 41.4186 10.5467 41.4566 10.7672C41.5022 10.9877 41.563 11.193 41.6391 11.3831C41.7227 11.5656 41.8215 11.7442 41.9356 11.9191C42.0496 12.094 42.1789 12.2765 42.3234 12.4665L45.7562 16.6179C46.3797 17.4315 46.8587 18.2146 47.1932 18.9673C47.5278 19.7124 47.695 20.5032 47.695 21.3395C47.695 22.0314 47.5848 22.6549 47.3643 23.2099C47.1514 23.7649 46.8435 24.2363 46.4405 24.6241C46.0375 25.0119 45.5509 25.3122 44.9807 25.5251C44.4104 25.7304 43.768 25.833 43.0533 25.833C42.1713 25.833 41.4376 25.7152 40.8521 25.4795C40.2743 25.2438 39.8105 24.932 39.4607 24.5443C39.1186 24.1565 38.8753 23.7155 38.7308 23.2213C38.594 22.7271 38.5255 22.2215 38.5255 21.7045Z" fill="black"/>
<path d="M51.9833 8.49766H48.8469V6.17107H58.062V8.49766H54.9371V25.6505H51.9833V8.49766Z" fill="black"/>
<path d="M60.0579 6.17107H63.0117V25.6505H60.0579V6.17107Z" fill="black"/>
<path d="M70.5503 25.8216C70.2462 25.8216 69.9155 25.795 69.5581 25.7418C69.2084 25.6962 68.8548 25.5935 68.4975 25.4338C68.1477 25.2742 67.8094 25.0499 67.4824 24.761C67.1631 24.4644 66.878 24.0767 66.6271 23.5977C66.3838 23.1187 66.1861 22.5294 66.034 21.8299C65.8895 21.1228 65.8173 20.2827 65.8173 19.3094V12.4095C65.8173 11.4287 65.8934 10.5923 66.0454 9.90046C66.1975 9.20096 66.399 8.61551 66.6499 8.14411C66.9008 7.66511 67.1897 7.28495 67.5166 7.00363C67.8436 6.72231 68.1819 6.50942 68.5317 6.36495C68.8814 6.21289 69.2274 6.11405 69.5695 6.06843C69.9193 6.02281 70.2424 6 70.5389 6C71.3145 6 71.9607 6.11025 72.4777 6.33074C73.0024 6.54363 73.4205 6.84016 73.7323 7.22032C74.0516 7.59288 74.2759 8.03006 74.4052 8.53187C74.542 9.03369 74.6105 9.56591 74.6105 10.1286C74.6105 10.5467 74.5876 10.9345 74.542 11.2918C74.504 11.6416 74.4432 12.0294 74.3595 12.4551H71.9645V11.4629C71.9645 10.3909 71.8467 9.58872 71.611 9.0565C71.3753 8.52427 71.0293 8.25816 70.5731 8.25816C70.2994 8.25816 70.0599 8.31138 69.8546 8.41783C69.6493 8.52427 69.4783 8.70675 69.3414 8.96526C69.2046 9.21616 69.0981 9.55071 69.0221 9.96888C68.9537 10.3871 68.9194 10.9079 68.9194 11.5313V20.4271C68.9194 21.0354 68.946 21.541 68.9993 21.944C69.0601 22.3469 69.1551 22.6701 69.2844 22.9134C69.4136 23.1567 69.5809 23.3316 69.7862 23.438C69.9991 23.5368 70.2538 23.5863 70.5503 23.5863C70.7404 23.5863 70.9229 23.5444 71.0978 23.4608C71.2726 23.3696 71.4247 23.2327 71.554 23.0502C71.6908 22.8602 71.7973 22.6245 71.8733 22.3431C71.9569 22.0542 71.9987 21.7159 71.9987 21.3281V19.4235H74.7017V21.2255C74.7017 22.7917 74.3443 23.9474 73.6296 24.6925C72.9149 25.4376 71.8885 25.814 70.5503 25.8216Z" fill="black"/>
</svg>
